<svg width="24" height="24" viewBox="0 0 24 24" fill="none" xmlns="http://www.w3.org/2000/svg">
<g id="icon/navigation/unfold_less_24px">
<path id="icon/navigation/unfold_less_24px_2" fill-rule="evenodd" clip-rule="evenodd" d="M15.175 4.40753C15.4395 4.40753 15.6932 4.51276 15.88 4.70002C16.27 5.09002 16.27 5.73002 15.87 6.12002L12.7 9.29002C12.31 9.68002 11.68 9.68002 11.29 9.29002L8.12001 6.12002C7.73001 5.73002 7.73001 5.09002 8.12001 4.70002C8.30685 4.51276 8.5605 4.40753 8.82501 4.40753C9.08953 4.40753 9.34318 4.51276 9.53001 4.70002L12 7.17002L14.47 4.70002C14.6568 4.51276 14.9105 4.40753 15.175 4.40753ZM12 16.83L9.53001 19.3C9.14001 19.69 8.51001 19.69 8.12001 19.3C7.73001 18.91 7.73001 18.27 8.13001 17.89L11.3 14.72C11.4868 14.5328 11.7405 14.4275 12.005 14.4275C12.2695 14.4275 12.5232 14.5328 12.71 14.72L15.88 17.89C16.27 18.28 16.27 18.91 15.88 19.3C15.49 19.69 14.86 19.69 14.47 19.3L12 16.83Z" fill="#666666"/>
</g>
</svg>
